<?xml version="1.0" encoding="utf-8"?>
<!-- Generator: Adobe Illustrator 22.0.0, SVG Export Plug-In . SVG Version: 6.00 Build 0)  -->
<!DOCTYPE svg PUBLIC "-//W3C//DTD SVG 1.1//EN" "http://www.w3.org/Graphics/SVG/1.1/DTD/svg11.dtd">
<svg version="1.1" id="Layer_1" xmlns="http://www.w3.org/2000/svg" xmlns:xlink="http://www.w3.org/1999/xlink" x="0px" y="0px"
	 viewBox="0 0 504.9 614.8" style="enable-background:new 0 0 504.9 614.8;" xml:space="preserve">
<style type="text/css">
	.st0{fill:#1B99FE;}
	.st1{fill:#E80A89;}
	.st2{fill:#FFA512;}
	.st3{fill:#8CC63E;}
</style>
<polygon class="st0" points="168.3,409.8 336.6,614.8 504.9,409.8 "/>
<polygon class="st1" points="504.9,409.9 336.6,204.9 168.3,409.9 295.5,409.9 328.4,431.7 346.3,431.7 378.6,409.9 "/>
<polygon class="st2" points="277,542.2 272.9,503.4 261.5,489.6 225,478.9 168.3,409.8 0,614.8 336.6,614.8 "/>
<path class="st3" d="M303.5,287.4c-4.6-3.8-19.9-1.4-23.9-4.7c-2.7-2.2-1.2-6.1,0.1-8.4l56.9-69.3H0l168.3,204.9l76.4-93.1
	c1.9-1.8,5.9-4.8,8.9-2.4c4.1,3.3,4.8,18.7,9.4,22.5s11.5,3.7,29-17.6l0,0l0,0C309.4,298,308.1,291.2,303.5,287.4z"/>
<g>
	<polygon class="st2" points="168.3,0 0,204.9 336.6,204.9 	"/>
	<polygon class="st2" points="159.7,226.9 177.6,226.9 210.1,204.9 126.6,204.9 	"/>
</g>
<polygon class="st0" points="504.9,0 168.3,0 226.4,70.8 230.8,110.1 242.2,123.8 278.5,134.2 336.6,204.9 "/>
<g>
</g>
<g>
</g>
<g>
</g>
<g>
</g>
<g>
</g>
<g>
</g>
</svg>
